<?xml version="1.0" encoding="utf-8"?>
<!-- Generator: Adobe Illustrator 24.0.1, SVG Export Plug-In . SVG Version: 6.00 Build 0)  -->
<svg version="1.1" id="图层_1" xmlns="http://www.w3.org/2000/svg" xmlns:xlink="http://www.w3.org/1999/xlink" x="0px" y="0px"
	 viewBox="0 0 1042 338" style="enable-background:new 0 0 1042 338;" xml:space="preserve">
<style type="text/css">
	.st0{fill-rule:evenodd;clip-rule:evenodd;fill:#FFFFFF;}
	.st1{fill:#052A62;}
	.st2{fill:#F4500B;}
	.st3{fill-rule:evenodd;clip-rule:evenodd;fill:#052A62;}
</style>
<title>画板备份 7</title>
<g id="画板备份-7">
	<rect y="0" class="st0" width="1042" height="338"/>
	<g id="编组-5" transform="translate(827.724296, 179.329474)">
	</g>
	<g id="编组-5备份" transform="translate(827.724296, 179.329474)">
	</g>
	<g id="编组-6" transform="translate(734.155273, 115.311523)">
		<path id="形状结合" class="st1" d="M43.3,105.7c5.1,0,10-0.7,14.7-2.1s9.1-3.3,13.1-5.8s7.7-5.6,11-9.1s6.1-7.5,8.5-11.9
			s4.2-9.2,5.4-14.3s1.9-10.6,1.9-16.2c0-7.2-1-13.6-3.1-19.3s-5-10.6-8.9-14.5s-8.7-7-14.4-9.2S59.2,0,51.9,0l0,0H22.3L0,105.7
			H43.3z M43.8,94h-28l17.5-82.3h17.5c5.3,0,10,0.8,14.1,2.4S72.6,18,75.5,21s5,6.7,6.6,11.1s2.3,9.3,2.3,14.8c0,6.7-1,13-3.1,18.8
			s-4.9,10.7-8.5,14.9s-7.9,7.5-12.8,9.9S49.6,94,43.8,94L43.8,94z M145.9,105.7c6,0,11.4-0.8,16.4-2.5s9.3-4,12.9-7
			s6.4-6.5,8.5-10.6s3-8.6,3-13.5c0-2.7-0.4-5.3-1.2-7.6s-2-4.4-3.6-6.2s-3.5-3.3-5.7-4.5s-4.8-2-7.6-2.5l0,0l0.3-1.2
			c3.5-0.7,6.6-1.9,9.4-3.6s5.2-3.7,7.2-6s3.5-5,4.6-7.9s1.6-6.1,1.6-9.4c0-3.5-0.7-6.7-2.1-9.6s-3.4-5.3-6-7.4s-5.7-3.6-9.4-4.7
			S166.4,0,161.9,0l0,0h-36.7l-22.5,105.7H145.9z M150.7,45.6h-21.8l7.2-33.9h20.7c7.1,0,12.4,1.2,15.9,3.5s5.2,6,5.2,10.8
			c0,2.9-0.7,5.5-2,7.9s-3.2,4.5-5.6,6.2s-5.3,3-8.6,4S154.7,45.6,150.7,45.6L150.7,45.6z M145.5,94h-26.9l7.9-37.1H151
			c14.5,0,21.7,5.4,21.7,16.3c0,3-0.7,5.7-2.1,8.3s-3.3,4.7-5.7,6.6s-5.3,3.3-8.6,4.4S149.3,94,145.5,94L145.5,94z"/>
	</g>
	<path id="Cnos" class="st2" d="M413.9,224.2c7.7,0,14.5-1.3,20.5-3.9s10.8-6.3,14.6-10.9s6.2-9.9,7.2-15.8c0.2-0.5,0.3-1.1,0.4-1.8
		s0.1-1.1,0.2-1.5H439c-1.1,5.4-3.8,9.7-8,12.9s-9.4,4.8-15.7,4.8c-8.1,0-14.3-2.4-18.7-7.3s-6.6-11.5-6.6-19.8
		c0-1.6,0.1-3.7,0.4-6.2s0.5-4.5,0.7-5.8l2.8-14.3c1.3-6.4,3.2-11.7,5.8-16s5.7-7.4,9.5-9.5c3.8-2.1,8.1-3.1,12.9-3.1
		c3.2,0,6.1,0.5,8.9,1.5c2.7,1,5.1,2.3,7.2,4.1s3.7,3.8,5,6.1s2,4.9,2.2,7.7c0.1,0.4,0.1,1.8,0,3.8c0,1.3-0.1,2.7-0.3,4
		c4,0,18-4,18.2-11.1c0.1-4-1.2-7.7-2.9-11.2c-2-4.1-4.8-7.7-8.4-10.8s-7.9-5.6-13-7.4s-10.5-2.7-16.6-2.7c-8.4,0-15.8,1.7-22.2,5
		s-11.7,8.1-15.9,14.3c-4.1,6.2-7,13.6-8.7,22.3l-3.4,18.1c-0.3,1.4-0.5,3.2-0.6,5.4s-0.2,4.2-0.2,5.9c0,9,1.7,16.7,5.1,23.2
		s8.3,11.4,14.6,14.9S405.1,224.2,413.9,224.2z M486,222l8.5-48.7c0.8-4.4,2.1-8.3,4-11.8s4.4-6.3,7.4-8.4s6.7-3.1,11-3.1
		c5.1,0,8.8,1.5,11.1,4.6s3.5,6.8,3.5,11.3c0,1.7-0.1,3.4-0.3,5.2s-0.4,3.3-0.6,4.5l-8.2,46.5h18l8.1-45.4c0.4-2.3,0.8-4.7,1.2-7.2
		s0.5-5.1,0.5-7.5c0-4.7-0.9-9.1-2.8-13.1s-4.7-7.2-8.5-9.6s-8.7-3.6-14.6-3.6c-6.2,0-11.3,1.4-15.5,4.1c-4.1,2.7-8.6,9.8-10.7,14.4
		l3-17c-4.7,0.7-8.7,2-12,4c-1.8,1.1-3.4,2.3-5,3.7c-2.5,2.3-4.2,5.3-4.7,8.7L467.9,222l0,0H486z M600.3,223.5
		c7.4,0,13.7-1.3,19.1-4s9.8-6.4,13.3-11.4s5.8-10.7,7-17.4l1.9-9.9c0.3-1.7,0.6-3.5,0.7-5.2s0.2-3.4,0.2-5c0-7.2-1.5-13.4-4.6-18.7
		s-7.4-9.3-12.9-12.2s-12-4.3-19.3-4.3c-6.6,0-12.5,1.3-17.9,3.9s-9.9,6.4-13.5,11.2s-6,10.7-7.3,17.4l-1.7,9.8
		c-0.4,1.8-0.6,3.7-0.8,5.7s-0.2,4-0.2,6c0,7,1.5,13.1,4.6,18.2s7.3,9,12.8,11.7S593.4,223.5,600.3,223.5z M601.5,209
		c-5.9,0-10.6-1.9-13.9-5.6s-5.1-8.7-5.1-14.7c0-1.7,0.1-3.2,0.2-4.5s0.3-2.6,0.6-3.9l1.6-9.3c0.8-4.8,2.2-8.8,4.1-11.9
		s4.3-5.4,7.1-6.9s5.9-2.3,9.3-2.3c5.9,0,10.5,1.8,13.8,5.5s5,8.5,5,14.4c0,0.6,0,1.7-0.1,3.2s-0.2,3-0.3,4.2l-1.7,9.9
		c-1.2,7-3.5,12.4-7.1,16.2S607,209,601.5,209z M684.9,223.7c5,0,9.6-0.6,13.8-1.7s7.9-2.9,11-5.2s5.5-5.1,7.2-8.4s2.6-7.2,2.6-11.6
		c0-4.9-1-9-3.1-12s-4.9-5.6-8.5-7.5s-7.4-3.5-11.6-4.9c-3.2-1.1-6.2-2.1-9-3.1s-5.1-2.3-6.9-3.8s-2.6-3.6-2.6-6.2
		c0-2,0.6-3.8,1.7-5.4s2.8-3,5-3.9s4.9-1.5,8.1-1.5c3.5,0,6.5,0.6,8.9,1.9s4.2,2.8,5.4,4.6s1.8,3.6,1.8,5.4c0,1.2-0.2,2.1-0.6,2.8
		c10.7-1.3,16-4,16-8c0-3-0.6-3.8-3.1-7.4s-6.2-6.5-11-8.8s-10.6-3.4-17.4-3.4c-6.9,0-12.8,1.1-17.6,3.3s-8.4,5.2-10.8,9
		s-3.7,8.3-3.7,13.4c0,4,0.8,7.4,2.5,10.2s3.7,5.1,6.3,6.9s5.2,3.3,8.1,4.4s5.4,2.1,7.8,2.8c3.1,1,5.9,1.9,8.4,2.9s4.6,2.3,6.1,3.8
		s2.3,3.6,2.3,6.2c0,2.3-0.6,4.4-1.8,6.1s-3,3.2-5.4,4.2s-5.4,1.5-8.9,1.5s-6.6-0.5-9.2-1.6s-4.8-2.5-6.3-4.3s-2.5-3.7-2.9-5.7
		c0-0.2,0-0.5,0-0.8s0-0.5,0-0.7h-16.4c0,0.2,0,0.4,0,0.7s0,0.5,0,0.7c0,3.7,0.9,7.1,2.7,10.1s4.2,5.7,7.3,7.9s6.8,4,10.9,5.2
		S680.1,223.7,684.9,223.7z"/>
	<g id="编组-3" transform="translate(81.000000, 34.000000)">
		<path id="形状" class="st3" d="M124.5,0c48.1,0,89.9,27.3,110.6,67.3L236,69c0.4,0.7,0.7,1.5,1.1,2.2l0.7,1.4l0.4,0.8l0.4,0.9
			l0.3,0.8l0.5,1.1l0.3,0.8l0.4,0.9c0.3,0.8,0.6,1.5,0.9,2.3l0.5,1.3l0.3,0.8l0.4,1c0.3,0.8,0.5,1.6,0.8,2.3l0.4,1.3l0.3,0.8
			l0.3,1.1l0.2,0.8l0.3,1.1l0.2,0.8l0.3,1.1l0.2,0.8l0.3,1l0.2,0.9l0.3,1.1l0.2,0.9l0.2,1c0.2,0.8,0.3,1.6,0.5,2.5l0.3,1.5l0.2,0.9
			l0.2,1.1l0.1,0.9l0.2,1l0.1,0.9l0.1,1.1l0.1,0.9l0.1,1.1c0.3,2.8,0.5,5.6,0.7,8.5l0.1,1.4l0,1l0,1.3l0,0.9l0,1.1
			c0,68.8-55.7,124.5-124.5,124.5l-1.6,0l-0.6,0l-0.9,0l-1.1,0l-0.9,0l-1.1,0l-0.8,0l-1.2-0.1l-0.9-0.1l-1.3-0.1l-0.8-0.1l-1.2-0.1
			l-0.8-0.1l-1-0.1l-0.9-0.1l-1.2-0.2l-0.9-0.1l-1.1-0.2c-0.8-0.1-1.6-0.2-2.4-0.4l-1.4-0.2l-1-0.2l-1.1-0.2l-0.9-0.2l-1-0.2
			l-0.9-0.2l-1.2-0.3C41.1,233,0,183.6,0,124.5C0,55.7,55.7,0,124.5,0z M124.5,9C60.7,9,9,60.7,9,124.5c0,49.1,30.7,91.1,73.9,107.8
			c4.2,1.6,8.6,3,13.1,4.2c8,1.5,15.1-0.9,21.4-7.3c13.4-14.7,21.6-34.2,21.6-55.7c0-24.5-10.7-46.5-27.6-61.6
			c13.2,8.9,29,14.1,46.1,14.1c26.4,0,49.9-12.4,65-31.7c6.2-8.8,7.4-17.1,3.6-24.9C206.5,33.4,168.4,9,124.5,9z M124.5,25
			c23.5,0,45,8.1,62,21.7l0.7,0.6l1,0.8l1.1,0.9l0.4,0.4l0.6,0.5l0.4,0.4l0.5,0.5l0.5,0.4l0.5,0.5C198.9,59,203,68.8,203,79.5
			c0,13-6,24.6-15.3,32.2c-4.4-21.8-19.8-39.6-40.1-47.4L147,64c-0.8-0.3-1.6-0.6-2.5-0.9l-1-0.3l-0.7-0.2l-0.9-0.2l-0.9-0.2
			l-0.8-0.2l-1-0.2l-0.8-0.2l-0.9-0.2l-0.9-0.2l-0.9-0.2l-1.2-0.2l-0.5-0.1l-0.9-0.1l-0.7-0.1l-0.4-0.1l-0.5-0.1l-0.9-0.1l-0.3,0
			l-0.9-0.1l-0.9-0.1l-1-0.1l-1,0l-1,0c-0.4,0-0.8,0-1.2,0C88.9,60,60,88.9,60,124.5c0,6.5,1,12.8,2.8,18.7l0.2,0.6l0.3,1l0.2,0.6
			l0.2,0.6c0.2,0.5,0.4,1.1,0.6,1.6l0.4,1l0.2,0.5c0.2,0.5,0.4,1,0.7,1.5l0.4,1l0.2,0.5l0.4,0.9l0.5,0.9l0.5,1l0.5,0.8
			c0.3,0.5,0.5,0.9,0.8,1.4l0.4,0.7l0.4,0.7l0.5,0.7l0.5,0.7l0.4,0.6c0.4,0.6,0.8,1.2,1.3,1.8l0.6,0.9c0.3,0.4,0.7,0.9,1,1.3
			l0.7,0.8l0.3,0.4c11.8,14.3,29.7,23.4,49.7,23.4c2.2,0,4.3-0.1,6.4-0.3c-6.2,15.1-21.1,25.7-38.4,25.7c-7.4,0-14.4-1.9-20.4-5.4
			l0,0.1l-0.6-0.4l-0.7-0.4l-0.6-0.4l-1-0.7l-0.9-0.6c-26.2-17.9-43.3-48-43.3-82.1C25,69.5,69.5,25,124.5,25z"/>
	</g>
</g>
</svg>
